<svg xmlns="http://www.w3.org/2000/svg" viewBox="0 0 512 512">
  <defs>
    <linearGradient id="bg" x1="0%" y1="0%" x2="100%" y2="100%">
      <stop offset="0%" style="stop-color:#3B82F6"/>
      <stop offset="100%" style="stop-color:#1D4ED8"/>
    </linearGradient>
  </defs>
  <!-- Background -->
  <rect width="512" height="512" rx="96" fill="url(#bg)"/>
  <!-- Calculator Icon -->
  <rect x="128" y="96" width="256" height="320" rx="24" fill="white"/>
  <!-- Display -->
  <rect x="152" y="120" width="208" height="80" rx="12" fill="#1E3A5F"/>
  <!-- Price Text -->
  <text x="340" y="175" font-family="Arial, sans-serif" font-size="42" font-weight="bold" fill="#10B981" text-anchor="end">₩</text>
  <!-- Buttons Row 1 -->
  <rect x="152" y="224" width="48" height="48" rx="8" fill="#E5E7EB"/>
  <rect x="212" y="224" width="48" height="48" rx="8" fill="#E5E7EB"/>
  <rect x="272" y="224" width="48" height="48" rx="8" fill="#E5E7EB"/>
  <rect x="332" y="224" width="48" height="48" rx="8" fill="#3B82F6"/>
  <!-- Buttons Row 2 -->
  <rect x="152" y="284" width="48" height="48" rx="8" fill="#E5E7EB"/>
  <rect x="212" y="284" width="48" height="48" rx="8" fill="#E5E7EB"/>
  <rect x="272" y="284" width="48" height="48" rx="8" fill="#E5E7EB"/>
  <rect x="332" y="284" width="48" height="48" rx="8" fill="#3B82F6"/>
  <!-- Buttons Row 3 -->
  <rect x="152" y="344" width="48" height="48" rx="8" fill="#E5E7EB"/>
  <rect x="212" y="344" width="48" height="48" rx="8" fill="#E5E7EB"/>
  <rect x="272" y="344" width="48" height="48" rx="8" fill="#E5E7EB"/>
  <rect x="332" y="344" width="48" height="48" rx="8" fill="#10B981"/>
</svg>
